<svg xmlns="http://www.w3.org/2000/svg" width="40.704" height="40.576" viewBox="0 0 40.704 40.576">
  <g id="schedule_1_" data-name="schedule (1)" transform="translate(-1.05 -1.02)">
    <path id="Path_26433" data-name="Path 26433" d="M19.618,37.31h-4.2a.8.8,0,1,0,0,1.593h4.2a.8.8,0,1,0,0-1.593Z" transform="translate(-7.393 -19.772)"/>
    <path id="Path_26434" data-name="Path 26434" d="M19.618,50.83h-4.2a.8.8,0,1,0,0,1.593h4.2a.8.8,0,1,0,0-1.593Z" transform="translate(-7.393 -27.138)"/>
    <path id="Path_26435" data-name="Path 26435" d="M19.618,64.35h-4.2a.8.8,0,0,0,0,1.593h4.2a.8.8,0,1,0,0-1.593Z" transform="translate(-7.393 -34.504)"/>
    <path id="Path_26436" data-name="Path 26436" d="M40.468,37.31h-4.2a.8.8,0,1,0,0,1.593h4.2a.8.8,0,1,0,0-1.593Z" transform="translate(-18.753 -19.772)"/>
    <path id="Path_26437" data-name="Path 26437" d="M40.468,50.83h-4.2a.8.8,0,1,0,0,1.593h4.2a.8.8,0,1,0,0-1.593Z" transform="translate(-18.753 -27.138)"/>
    <path id="Path_26438" data-name="Path 26438" d="M40.468,64.35h-4.2a.8.8,0,0,0,0,1.593h4.2a.8.8,0,1,0,0-1.593Z" transform="translate(-18.753 -34.504)"/>
    <path id="Path_26439" data-name="Path 26439" d="M57.107,38.9h4.206a.8.8,0,0,0,0-1.593H57.107a.8.8,0,1,0,0,1.593Z" transform="translate(-30.107 -19.772)"/>
    <path id="Path_26440" data-name="Path 26440" d="M57.107,52.423h4.206a.8.8,0,0,0,0-1.593H57.107a.8.8,0,1,0,0,1.593Z" transform="translate(-30.107 -27.138)"/>
    <path id="Path_26441" data-name="Path 26441" d="M40.627,31.157a.8.8,0,0,0-.614.947,6.723,6.723,0,0,1,.141,1.366,6.564,6.564,0,1,1-2.08-4.779l-4.488,4.775-1.821-1.916a.8.8,0,0,0-1.152,1.092L33,35.176a.8.8,0,0,0,1.161,0l7.378-7.861a.8.8,0,1,0-1.165-1.092l-1.211,1.3a7.969,7.969,0,0,0-.97-.787V4.507a.8.8,0,0,0-.8-.8H31.023V1.817a.8.8,0,1,0-1.593,0V3.71H20.408V1.817a.8.8,0,0,0-1.593,0V3.71H9.794V1.817a.8.8,0,0,0-1.593,0V3.71H1.847a.8.8,0,0,0-.8.8V38.831a.8.8,0,0,0,.8.8H28.269a8.138,8.138,0,0,0,13.268-7.856.8.8,0,0,0-.91-.614ZM2.643,5.3H8.2V7.147a.8.8,0,0,0,1.593,0V5.3h9.022V7.147a.8.8,0,0,0,1.593,0V5.3H29.43V7.147a.8.8,0,0,0,1.593,0V5.3h5.558V10.87H2.643Zm0,7.16H36.581V25.891a8.138,8.138,0,0,0-9.727,12.144H2.643Z" transform="translate(0 0)"/>
  </g>
</svg>
