<svg xmlns="http://www.w3.org/2000/svg" xmlns:xlink="http://www.w3.org/1999/xlink" width="81.566" height="81.566" viewBox="0 0 81.566 81.566"><defs><clipPath id="a"><rect width="81.566" height="81.566" fill="none"></rect></clipPath></defs><g clip-path="url(#a)"><g transform="translate(-1000.002 -2276)"><g transform="matrix(0.875, 0.485, -0.485, 0.875, 1029.09, 2276)"><g transform="translate(0)"><path d="M30,0A29.829,29.829,0,0,1,49,6.8V1a1,1,0,0,1,2,0V9c0,.008,0,.015,0,.023A1,1,0,0,1,49.811,10H42a1,1,0,1,1,0-2h5.3A27.99,27.99,0,1,0,58,30a1,1,0,0,1,2,0A30,30,0,1,1,30,0Z"></path></g></g><g transform="translate(1003.012 2303.503)"><path d="M44.891,13.257h1.883a.773.773,0,0,0,.772-.772V10.6a.773.773,0,0,0-.772-.772H44.891a.773.773,0,0,0-.772.772v1.883A.773.773,0,0,0,44.891,13.257Zm.019-2.636h1.845v1.845H44.909Zm-.019,7.645h1.883a.773.773,0,0,0,.772-.772V15.61a.773.773,0,0,0-.772-.772H44.891a.773.773,0,0,0-.772.772v1.883A.773.773,0,0,0,44.891,18.265Zm.019-2.636h1.845v1.845H44.909Zm-5.392-2.372H41.4a.773.773,0,0,0,.772-.772V10.6A.773.773,0,0,0,41.4,9.83H39.518a.773.773,0,0,0-.772.772v1.883A.773.773,0,0,0,39.518,13.257Zm.019-2.636h1.845v1.845H39.536Zm-8.882,8.991H28.771a.773.773,0,0,0-.772.772v1.883a.773.773,0,0,0,.772.772h1.883a.773.773,0,0,0,.772-.772V20.384A.773.773,0,0,0,30.654,19.612Zm-.019,2.636H28.79V20.4h1.845ZM30.654,9.83H28.771A.773.773,0,0,0,28,10.6v1.883a.773.773,0,0,0,.772.772h1.883a.773.773,0,0,0,.772-.772V10.6A.773.773,0,0,0,30.654,9.83Zm-.019,2.636H28.79V10.621h1.845Zm8.882,5.682H41.4a.773.773,0,0,0,.772-.772V15.493a.773.773,0,0,0-.772-.772H39.518a.773.773,0,0,0-.772.772v1.883A.773.773,0,0,0,39.518,18.148Zm.019-2.636h1.845v1.845H39.536Zm8.4-13.7H46.248V1.2a1.2,1.2,0,0,0-1.2-1.2h-.182a1.2,1.2,0,0,0-1.2,1.2v.6H31.884V1.2a1.2,1.2,0,0,0-1.2-1.2H30.5a1.2,1.2,0,0,0-1.2,1.2v.6h-1.69a1.982,1.982,0,0,0-1.98,1.98V25.016A1.979,1.979,0,0,0,27.6,26.993H47.941a1.979,1.979,0,0,0,1.977-1.977V3.787a1.982,1.982,0,0,0-1.98-1.98Zm-3.486-.6a.412.412,0,0,1,.412-.412h.182a.412.412,0,0,1,.412.412v.6h-1Zm-14.364,0A.412.412,0,0,1,30.5.791h.182a.412.412,0,0,1,.412.412v.6h-1V1.2ZM49.127,25.016A1.188,1.188,0,0,1,47.941,26.2H27.6a1.188,1.188,0,0,1-1.186-1.186v0a1.969,1.969,0,0,0,1.189.4H43.638a1.967,1.967,0,0,0,1.4-.58l4.089-4.089Zm-4.493-.9a1.691,1.691,0,0,0,.048-.4V21.078a.9.9,0,0,1,.9-.9h2.639a1.691,1.691,0,0,0,.4-.048ZM49.127,7.458H32.279a.4.4,0,0,0,0,.791H49.127V18.482a.9.9,0,0,1-.9.9H45.585a1.7,1.7,0,0,0-1.693,1.693v2.639a.9.9,0,0,1-.9.9H27.607a1.19,1.19,0,0,1-1.189-1.189V8.248H30.7a.4.4,0,0,0,0-.791h-4.28V3.787A1.19,1.19,0,0,1,27.607,2.6H29.3V3.76a1.2,1.2,0,0,0,1.2,1.2.4.4,0,0,0,0-.791.412.412,0,0,1-.412-.412V2.6H43.661V3.76a1.2,1.2,0,0,0,1.2,1.2.4.4,0,0,0,0-.791.412.412,0,0,1-.412-.412V2.6h3.486a1.19,1.19,0,0,1,1.189,1.189ZM30.654,14.721H28.771a.773.773,0,0,0-.772.772v1.883a.773.773,0,0,0,.772.772h1.883a.773.773,0,0,0,.772-.772V15.493A.773.773,0,0,0,30.654,14.721Zm-.019,2.636H28.79V15.512h1.845Zm3.509-4.1h1.883a.773.773,0,0,0,.772-.772V10.6a.773.773,0,0,0-.772-.772H34.144a.773.773,0,0,0-.772.772v1.883A.773.773,0,0,0,34.144,13.257Zm.019-2.636h1.845v1.845H34.163Zm5.373,11.627a.4.4,0,0,0-.79.019.773.773,0,0,0,.772.772H41.4a.773.773,0,0,0,.772-.772V20.384a.773.773,0,0,0-.772-.772H39.517a.773.773,0,0,0-.772.772v.543a.4.4,0,0,0,.791,0V20.4h1.845v1.845Zm-5.391-4.1h1.883a.773.773,0,0,0,.772-.772V15.493a.773.773,0,0,0-.772-.772H34.144a.773.773,0,0,0-.772.772v1.883A.773.773,0,0,0,34.144,18.148Zm.019-2.636h1.845v1.845H34.163Zm-.019,7.527h1.883a.773.773,0,0,0,.772-.772V20.384a.773.773,0,0,0-.772-.772H34.144a.773.773,0,0,0-.772.772v1.883A.773.773,0,0,0,34.144,23.039Zm.019-2.636h1.845v1.845H34.163Z"></path></g></g></g></svg>
