<svg xmlns="http://www.w3.org/2000/svg" width="33.377" height="44.496" viewBox="0 0 33.377 44.496">
  <g id="human-resources" transform="translate(-63.974)">
    <path id="Path_290" data-name="Path 290" d="M94.24,0H73.521a.652.652,0,0,0,0,1.3H94.24a1.809,1.809,0,0,1,1.807,1.807V41.385a1.809,1.809,0,0,1-1.807,1.807H67.085a1.809,1.809,0,0,1-1.807-1.807V3.111A1.809,1.809,0,0,1,67.085,1.3h3.871a.652.652,0,0,0,0-1.3H67.085a3.114,3.114,0,0,0-3.111,3.111V41.385A3.114,3.114,0,0,0,67.085,44.5H94.24a3.114,3.114,0,0,0,3.111-3.111V3.111A3.114,3.114,0,0,0,94.24,0Z" transform="translate(0)"/>
    <path id="Path_291" data-name="Path 291" d="M152.123,215.394H133.011a.662.662,0,0,0,0,1.3h19.112a.662.662,0,0,0,0-1.3Z" transform="translate(-62.538 -196.675)"/>
    <path id="Path_292" data-name="Path 292" d="M148.275,256.486c0-.36-.192-.652-.428-.652H132.892c-.237,0-.428.292-.428.652s.192.652.428.652h14.955C148.084,257.138,148.275,256.846,148.275,256.486Z" transform="translate(-62.538 -233.6)"/>
    <path id="Path_293" data-name="Path 293" d="M143.2,296.274H133.116a.652.652,0,1,0,0,1.3H143.2a.652.652,0,1,0,0-1.3Z" transform="translate(-62.538 -270.526)"/>
    <path id="Path_294" data-name="Path 294" d="M143.2,336.714H133.116a.652.652,0,0,0,0,1.3H143.2a.652.652,0,1,0,0-1.3Z" transform="translate(-62.538 -307.451)"/>
    <path id="Path_295" data-name="Path 295" d="M132.464,135.166a.652.652,0,0,0,.652.652h22.764a.652.652,0,0,0,0-1.3H133.116A.652.652,0,0,0,132.464,135.166Z" transform="translate(-62.538 -122.824)"/>
    <path id="Path_296" data-name="Path 296" d="M155.879,174.954H133.116a.652.652,0,0,0,0,1.3h22.764a.652.652,0,0,0,0-1.3Z" transform="translate(-62.538 -159.749)"/>
    <path id="Path_297" data-name="Path 297" d="M105.393,216.674a.654.654,0,1,0-.654-.654A.654.654,0,0,0,105.393,216.674Z" transform="translate(-37.222 -196.649)"/>
    <path id="Path_298" data-name="Path 298" d="M105.393,135.793a.654.654,0,1,0-.654-.654A.654.654,0,0,0,105.393,135.793Z" transform="translate(-37.222 -122.797)"/>
    <path id="Path_299" data-name="Path 299" d="M105.393,176.233a.654.654,0,1,0-.654-.654A.654.654,0,0,0,105.393,176.233Z" transform="translate(-37.222 -159.723)"/>
    <path id="Path_300" data-name="Path 300" d="M105.393,257.114a.654.654,0,1,0-.654-.654A.654.654,0,0,0,105.393,257.114Z" transform="translate(-37.222 -233.575)"/>
    <path id="Path_301" data-name="Path 301" d="M105.393,297.554a.654.654,0,1,0-.654-.654A.654.654,0,0,0,105.393,297.554Z" transform="translate(-37.222 -270.5)"/>
    <path id="Path_302" data-name="Path 302" d="M105.393,337.994a.654.654,0,1,0-.654-.654A.654.654,0,0,0,105.393,337.994Z" transform="translate(-37.222 -307.426)"/>
    <path id="Path_306" data-name="Path 306" d="M105.42,459.339h3.657a.652.652,0,1,0,0-1.3H105.42a.652.652,0,1,0,0,1.3Z" transform="translate(-37.249 -418.229)"/>
    <path id="Path_307" data-name="Path 307" d="M345.3,459.339h3.657a.652.652,0,0,0,0-1.3H345.3a.652.652,0,1,0,0,1.3Z" transform="translate(-256.28 -418.229)"/>
    <g id="Group_72" data-name="Group 72" transform="translate(71.948 5.005)">
      <path id="Path_313" data-name="Path 313" d="M.652,1.3H4.309a.652.652,0,1,0,0-1.3H.652a.652.652,0,0,0,0,1.3Z" transform="translate(0.922 0) rotate(45)"/>
      <path id="Path_314" data-name="Path 314" d="M.652,0H4.309a.652.652,0,1,1,0,1.3H.652a.652.652,0,1,1,0-1.3Z" transform="translate(4.43 0.922) rotate(135)"/>
    </g>
    <path id="Path_312" data-name="Path 312" d="M365.651,39.721a1.94,1.94,0,0,0-1.973-1.9H362.4a.652.652,0,0,0-.652.652V43.28a.652.652,0,1,0,1.3,0V42.053l1.46,1.658a.652.652,0,0,0,.979-.861l-1.171-1.33A1.911,1.911,0,0,0,365.651,39.721Zm-1.973.6-.621,0c0-.227,0-.459,0-.6,0-.12,0-.36,0-.6h.624a.6.6,0,1,1,0,1.2Z" transform="translate(-294.342 -34.482)"/>
  </g>
</svg>
